<svg width="37" height="32" fill="none" xmlns="http://www.w3.org/2000/svg">
    <circle cx="16" cy="16" r="16" fill="#E5E7EB"/>
    <path d="M29.317 10.35a1.375 1.375 0 0 1-1.62-.06h-.002a1.37 1.37 0 0 1-.329-.374v-.003a.183.183 0 0 0-.25-.063l-6.05 3.617-.492-.821-.669-1.12 6.05-3.616a.182.182 0 0 0 .063-.25v-.002a1.376 1.376 0 0 1 .815-2.032 1.374 1.374 0 0 1 1.595 1.943.185.185 0 0 0 .159.264c.462.014.907.26 1.155.692a1.385 1.385 0 0 1-.425 1.825z" fill="#FFE5C2"/>
    <path d="M27.365 9.912a.183.183 0 0 0-.25-.062l-6.05 3.617-.492-.821 5.559-3.332a.77.77 0 0 1 1.067.286c.047.084.153.287.166.313zM29.316 10.35a1.375 1.375 0 0 1-1.62-.06l-.033-.028c.064-.056.145-.119.25-.184.62-.385.881-1.175.548-1.825a1.374 1.374 0 0 0-1.236-.75.15.15 0 0 1-.131-.222 1.374 1.374 0 0 0-.26-1.655 1.374 1.374 0 0 1 1.595 1.943.185.185 0 0 0 .157.265 1.374 1.374 0 0 1 .73 2.516z" fill="#FED2A4"/>
    <path d="M34.837 14.54a1.375 1.375 0 0 1-1.62-.06l-.001-.001a1.37 1.37 0 0 1-.329-.374l-.001-.003a.183.183 0 0 0-.25-.062l-6.05 3.617-.492-.822-.668-1.119 6.05-3.617a.183.183 0 0 0 .063-.25l-.001-.002a1.376 1.376 0 0 1 .816-2.032 1.374 1.374 0 0 1 1.595 1.943.185.185 0 0 0 .158.265c.462.013.907.259 1.156.692a1.385 1.385 0 0 1-.426 1.824z" fill="#FFE5C2"/>
    <path d="M32.886 14.102a.183.183 0 0 0-.25-.062l-6.05 3.617-.491-.822 5.558-3.331a.77.77 0 0 1 1.067.285c.047.084.153.288.166.313zM34.837 14.54a1.375 1.375 0 0 1-1.62-.06v-.001a2.45 2.45 0 0 1-.033-.028 1.93 1.93 0 0 1 .25-.183c.62-.386.882-1.175.548-1.825a1.374 1.374 0 0 0-1.236-.75.15.15 0 0 1-.131-.222 1.374 1.374 0 0 0-.26-1.656 1.374 1.374 0 0 1 1.595 1.943.185.185 0 0 0 .157.265 1.374 1.374 0 0 1 .73 2.517z" fill="#FED2A4"/>
    <path d="m23.866 14.39-3.855 2.622a3.638 3.638 0 1 1-3.727-6.233l4.135-2.155a2.09 2.09 0 0 1 2.762.781l1.304 2.182a2.088 2.088 0 0 1-.619 2.802z" fill="#C57A44"/>
    <path d="m23.866 14.389-3.855 2.622c-.457.311-.958.503-1.467.585a3.633 3.633 0 0 1 1.947-2.957l4.135-2.154a1.73 1.73 0 0 1 .14-.066 2.088 2.088 0 0 1-.9 1.97z" fill="#B26C3D"/>
    <path d="m24.485 11.586-1.304-2.18a2.091 2.091 0 0 0-1.968-1.012c.26.169.487.398.656.681l1.304 2.181c.569.95.297 2.18-.619 2.803L18.7 16.68a3.617 3.617 0 0 1-2.261.623 3.633 3.633 0 0 0 3.573-.293l3.855-2.622a2.091 2.091 0 0 0 .62-2.803z" fill="#B26C3D"/>
    <path d="M28.142 21.418a3.692 3.692 0 0 1-1.69 2.273 3.691 3.691 0 0 1-2.802.412l-.784-.088-6.874-.774-8.867-3.296-.027-3.802c-.024-3.497 3.261-6.076 6.653-5.223l2.438.614a5.496 5.496 0 0 1 2.534 1.432l1.714 1.703.268.266c.7.697 1.575 1.19 2.533 1.432l2.219.558a3.69 3.69 0 0 1 2.216 1.597c.529.83.728 1.867.47 2.896z" fill="#C57A44"/>
    <path d="M28.142 21.418a3.692 3.692 0 0 1-1.69 2.273 3.692 3.692 0 0 1-2.802.413l-.784-.09-.528-.24c.99.249 1.99.073 2.802-.413a3.689 3.689 0 0 0 1.69-2.274 3.682 3.682 0 0 0-.043-1.962l-2.57 1.747a3.637 3.637 0 0 1-4.788-5.396.63.63 0 0 0-.036-.87l-1.982-1.97a5.493 5.493 0 0 0-2.534-1.432l1.312.33a5.496 5.496 0 0 1 2.534 1.432l1.714 1.703.268.266c.7.697 1.575 1.191 2.533 1.432l2.219.558a3.69 3.69 0 0 1 2.216 1.597c.529.83.728 1.867.47 2.896z" fill="#B26C3D"/>
    <path d="M20.362 20.061a3.637 3.637 0 0 1 1.441-5.092l4.135-2.154a2.091 2.091 0 0 1 2.762.781l1.303 2.181c.569.95.298 2.18-.618 2.803l-3.855 2.622a3.637 3.637 0 0 1-5.168-1.14z" fill="#C57A44"/>
    <path d="m30.003 15.777-1.304-2.18a2.091 2.091 0 0 0-1.968-1.012c.26.169.487.398.656.681l1.304 2.181c.569.95.297 2.18-.619 2.803l-3.855 2.622a3.618 3.618 0 0 1-2.261.623 3.633 3.633 0 0 0 3.573-.293l3.855-2.622a2.092 2.092 0 0 0 .62-2.803z" fill="#B26C3D"/>
    <path d="m11.671 21.089-4.033-.132-3.614-1.793a3.926 3.926 0 0 1 2.232-2.646 3.928 3.928 0 0 1 2.554-.215 3.926 3.926 0 0 1 2.646 2.233c.342.775.438 1.667.215 2.553z" fill="#FFE07D"/>
    <path d="M8.81 16.302a3.958 3.958 0 0 0-.67-.107 3.944 3.944 0 0 1 2.22 4.564l.182.293 1.13.037a3.943 3.943 0 0 0-2.862-4.787z" fill="#FFD064"/>
    <path d="m11.456 18.536-2.941 1.758-.404.242a.47.47 0 0 1-.645-.163l-.241-.403-1.777-2.972c.249-.191.521-.353.81-.48l1.774 2.969 2.944-1.76c.192.25.353.52.48.809z" fill="#FFD064"/>
    <path d="M11.146 5.002a.47.47 0 0 1-.247-.756l.272-.328c.26-.313.362-.72.282-1.12l-.084-.417a.47.47 0 0 1 .922-.186l.084.418a2.27 2.27 0 0 1-.48 1.905l-.271.328a.47.47 0 0 1-.478.156z" fill="#F9F3F1"/>
    <path d="M12.903 6.949a.469.469 0 0 1-.247-.757l.272-.328c.26-.313.362-.72.282-1.119l-.085-.418a.47.47 0 0 1 .923-.186l.084.419a2.27 2.27 0 0 1-.48 1.904l-.271.328a.47.47 0 0 1-.478.157z" fill="#EDE4E0"/>
    <path d="M15.96 5.59a.47.47 0 0 1-.247-.755l.272-.329c.26-.313.362-.72.282-1.119l-.084-.418a.47.47 0 0 1 .922-.185l.084.418a2.27 2.27 0 0 1-.48 1.904l-.271.329a.47.47 0 0 1-.478.156z" fill="#F9F3F1"/>
    <path d="M12.013 21.659a.47.47 0 0 1-.341-.57c.009-.036.23-.896.829-1.792.815-1.22 1.943-1.928 3.26-2.048a.47.47 0 0 1 .085.937c-1.03.094-1.888.636-2.548 1.611-.04.059-.077.117-.113.175a4.12 4.12 0 0 1 2.602-.177.47.47 0 0 1-.23.912c-1.822-.459-3.039.77-3.09.822a.472.472 0 0 1-.454.13z" fill="#B3E59F"/>
    <path d="M28.877 28.075 16.87 24.373 4.542 21.95l1.787 3.033c.337.572.89.985 1.534 1.148l16.11 4.054c.644.162 1.326.06 1.894-.285l3.01-1.825z" fill="#9E9797"/>
    <path d="m27.565 27.744-3.01 1.826a2.485 2.485 0 0 1-1.894.285l1.312.33c.644.162 1.326.06 1.894-.285l3.01-1.825-1.089-.336-.223.005z" fill="#807777"/>
    <path d="M29.98 28.352 3.35 21.651a1.337 1.337 0 0 1-1.006-1.188l-.079-.958a.574.574 0 0 1 .713-.604l28.654 7.211c.386.098.559.55.334.88l-.553.815a1.338 1.338 0 0 1-1.433.545z" fill="#DAD8DB"/>
    <path d="M30.594 25.851c.231.157.29.471.134.702l-.628.924a1.337 1.337 0 0 1-1.432.545l1.312.33a1.337 1.337 0 0 0 1.432-.545l.554-.815a.574.574 0 0 0-.335-.88l-1.037-.26z" fill="#C8C5C9"/>
</svg>
