<svg width="88" height="29" fill="none" xmlns="http://www.w3.org/2000/svg">
    <g clip-path="url(#a)" fill-rule="evenodd" clip-rule="evenodd" fill="#fff">
        <path d="M33.629 25.202c-3.254-2.099-7.678-2.511-14.793-.515-7.575 1.79-10.112 2.968-13.469.611-1.272-1.127-1.725-2.968-1.374-5.582.811-4.302 2.946-8.448 6.763-13.007 2.136-2.408 4.117-4.456 6.713-5.273C19.45.92 19.297 2.51 19.04 2.717c-.256 0-.658.052-1.016.258-.256.206-1.017.869-1.068 1.79-.051 1.384 1.375 1.126 1.982.36.658-.869 1.623-2.51.863-4.043-.308-.56-.863-.92-1.58-1.075-2.391-.155-4.629 1.024-6.661 2.254C7.093 5.39 3.488 9.743 1.455 14.5c-1.17 2.865-2.237 6.96-.658 10.34 1.221 2.306 3.759 3.536 6.815 3.278 2.135-.206 4.731-.92 6.457-1.333 1.725-.413 10.624-3.484 13.52 1.841 0 0 .965-1.893 3.407-1.944 1.982-.206 4.878.56 6.962 2.15-.666-1.016-2.648-2.555-4.33-3.63z"/>
        <path d="M19.748 7.232c-.475-.302-1.082-.353-1.769-.184-.79.192-1.682.67-2.603 1.378-1.104.847-2.252 2.018-3.305 3.417-2.442 3.226-3.51 6.96-2.34 8.705 1.514 1.797 4.131-.272 5.637-1.878a12.8 12.8 0 0 0 .564-.633l.153-.206c.739-.781 1.338-1.731 1.894-2.66.132-.227.263-.448.395-.67 0 0 .607-1.023.658-1.075.41-.051.863-.206 1.375-.36 0 0-2.033 3.432-1.828 5.118.05.516 0 2.409 1.828 2.968 2.442.413 4.372-1.488 6.098-3.174l.46-.464a4.452 4.452 0 0 0-.102.412c-.71 2.512.256 3.02.863 3.226 1.828.516 4.014-2.15 4.014-2.15-.05.817-.204 1.539.659 2.099.453.17.913.103 1.345-.06.344-.132.665-.323.943-.507 2.289-1.635 4.168-4.198 5.645-6.349h-.965s-2.34 3.38-3.86 4.146c0 0-.257.155-.462 0-.204-.154-.102-.56 0-.817l5.843-10.289h-2.742s-.307.516-.307.56c0 0-.051-.103-.103-.155-.9-1.252-2.376-.854-3.992.413-1.492 1.17-3.108 3.078-4.497 5.118-1.119 1.635-2.545 3.484-4.014 4.81 0 0-2.187 2.047-3.152.56-.358-.612-.256-1.488-.051-2.1 1.119-3.122 2.998-5.987 5.133-7.681.607-.464 1.272-.612 1.572-.413.307.206.358.663.154.972-.512 0-.914.155-1.221.464-.659.663-.863 1.333-.659 1.945.966 1.436 2.947-1.385 2.845-3.071-.051-.612-.358-1.179-.863-1.488-.71-.464-1.828-.31-2.545 0-.965.36-2.442 1.635-3.356 2.614-1.119 1.23-2.998 2.615-3.612 2.46.322-.442 1.952-3.77.27-5zm13.323 4.913c.161-.221.41-.553.688-.913.672-.877 1.513-1.937 1.806-2.158 1.272-1.127 1.776-.612 1.828-.31-1.12 1.982-2.377 4.257-3.635 6.327-.11.177-.219.36-.329.538l-.409.61c-.607.921-1.17 1.687-2.135 2.203a.602.602 0 0 1-.512-.052c-.205-.103-.256-.309-.256-.515.11-.656.768-2.806 2.954-5.73zm-15.048 1.281s0 .045-.044.089l-.007.014-1.222 1.996c-.394.538-.855 1.164-1.374 1.71-.417.441-.87.831-1.367 1.104-.359.103-.812.206-1.017-.103-.512-.612-.256-1.437-.051-2.1l.051-.257c.585-1.576 1.506-2.96 2.384-4.294l.102-.155h.051c.549 1.105 1.638 1.62 2.45 1.879l.044.014c.051 0 .051.052 0 .103zm1.17-2.305-.556 1.23c-.102.052-.205.052-.358 0l-.256-.051-.044-.015c-.739-.258-1.287-.715-1.433-1.319-.256-1.178.76-2.047 1.17-2.408.08-.059.168-.118.263-.162.387-.191.87-.243 1.155.007.256.258.307.612.307 1.024.059.575-.095 1.134-.248 1.694zM54.117 14.863a1.65 1.65 0 0 0-1.572-.92c-2.187.206-4.322 1.995-5.44 4.61-.608 1.333-.915 2.46-1.12 4.198.659-.766 2.084-2.1 3.664-2.814 0 0 .205-1.686 1.323-3.174.41-.611 1.221-1.635 2.187-1.333.811.258.511 2.563-.556 4.714a15.685 15.685 0 0 1-3.254 4.352c-1.119.92-2.69 2.048-4.117 1.179-.914-.516-1.323-1.635-1.272-3.072.41-4.094 2.289-7.527 4.877-11.467 2.64-3.609 5.572-7.269 9.513-9.294.08-.045.169-.081.249-.126.812-.412 1.572-.515 2.237-.257 0 0-1.148.64-2.486 1.87-1.082.995-2.288 2.38-3.107 4.117-.461.973-1.12 2.306-.461 3.484.358.611.914.663 1.426.611.812-.184 1.513-.582 2.142-1.097 1.097-.913 1.945-2.202 2.691-3.41.658-1.436 1.273-2.865 1.273-4.456 0-.206 0-.464-.052-.663 1.068-.56 3.203.464 3.203.464 1.674.56 5.287 3.33 6.508 3.889a32.216 32.216 0 0 1 2.135-2.254l-.812-.515a75.517 75.517 0 0 0-3.963-2.254C66.335-.39 63.893.17 62.621.634c-.512.154-.914.31-.914.31-.856-.966-2.26-.929-3.35-.708-.072.015-.138.03-.212.044-4.014 1.179-7.728 3.992-11.743 8.912-2.947 3.837-4.775 7.166-5.747 10.443-.76 2.202-.965 5.48.863 7.373 1.572 1.635 3.612 1.281 5.082.714 3.151-1.59 5.996-4.912 7.422-8.808.3-1.186.702-2.821.095-4.051zm7.268-12.138c-.249 2.924-1.711 5.112-3.042 6.437-.856.855-1.66 1.348-2.04 1.451-.556.103-1.528-.154-.658-2.15a14.925 14.925 0 0 1 2.698-3.933c.921-.958 1.938-1.753 2.99-2.32.052.213.052.317.052.515zM83.445 3.343c-1.982 1.127-4.066 1.893-6.61 1.635-.71.766-1.375 1.59-1.982 2.46 3.51.92 7.268-1.127 9.352-3.02C86.391 2.474 87.561.065 87.561.065s-1.674 1.842-4.116 3.278zM45.628 7.284H42.98l-1.47 2.512h2.64l1.477-2.512z"/>
        <path d="m78.16 21.624 4.065-7.321h-2.793c-.153.258-.41.714-.41.714-.153-.206-.511-.714-.657-.817-.659-.464-1.675-.206-2.391.155-.352.206-.688.441-1.017.692-2.493 1.9-4.424 4.905-5.945 7.35 0 0-1.828 3.02-2.844 3.277-.812.052-.71-1.023-.658-1.281.307-1.79 1.016-3.535 1.725-5.067 1.478-1.024 3.1-2.357 4.63-3.786a63.028 63.028 0 0 0 3.1-3.262c1.784-2.011 3.085-3.727 3.356-4.265 0 0-.461.103-.965.103-.659.914-1.492 1.937-2.392 2.969-2.573 2.945-5.696 5.936-6.866 6.503.585-1.378 3.671-6.96 6.866-11.055.717-.92 1.434-1.76 2.136-2.467l.606-.56c.915-.92 1.88-1.841 2.64-1.996.102 0 .205 0 .256.206.051.715-.205 1.23-.512 1.841l-.402.862s.607-.103.965-.258c.46-.869.965-1.84.76-2.968-.05-.36-.306-.663-.657-.714-1.12-.206-2.391.611-3.357 1.333h-.05a34.616 34.616 0 0 0-2.392 2.07c-4.102 3.88-7.663 9.066-10.83 15.738-.255.207-1.323.464-1.527.361.358-.766.862-1.79 1.067-2.916.051-.31.102-.663.102-.972 0-.715-.153-1.333-.76-1.79-.52-.258-1.14-.25-1.674-.11a2.56 2.56 0 0 0-.563.213 8.732 8.732 0 0 0-2.135 1.318c-1.668 1.363-3.013 3.263-4.066 4.883-.76 1.488-1.58 3.02-1.777 4.81-.153 1.384.154 2.305.965 2.762.812.412 1.828 0 2.238-.207.987-.515 1.857-1.222 2.64-2.032.701-.73 1.33-1.54 1.908-2.387a39.494 39.494 0 0 0 1.601-2.593c.051 0 .863-.05 1.529-.205h.05c-.05.103-.358 1.075-.358 1.075-.965 2.813-1.374 4.765-.511 5.885 1.272 1.59 3.407-.052 5.184-2.254-.359 2.615.965 3.02 2.033 2.813 1.17-.309 2.493-1.59 3.1-2.253-.205.766-.154 2.15.914 2.253.322.067.6.03.863-.059.358-.117.687-.331 1.067-.508 2.289-1.281 5.031-5.48 5.748-6.658h-.914c-1.068 1.385-2.391 3.432-4.015 4.404-.307.207-.658.052-.511-.412.358-1.12 1.835-3.417 1.835-3.417zm-17.615.184c-.527.862-1.214 1.812-1.909 2.526-.906.935-1.828 1.458-2.39.825-.154-.206-.205-.464-.205-.714-.044-1.474 1.44-4.014 2.588-5.635.088-.125.176-.243.256-.353.366.84 1.038 1.421 1.653 1.775.248.14.482.25.687.324-.154.346-.395.788-.68 1.252zm1.148-2.084c-.03.014-.168-.015-.351-.089a2.76 2.76 0 0 1-.79-.508 2.125 2.125 0 0 1-.636-1.142c-.175-.78.16-1.465.636-1.959.212-.22.454-.405.688-.545.029-.03.065-.051.102-.073.307-.2.746-.265 1.068-.125.358.206.409.61.409 1.075 0 .258-.051.56-.051.766v.051c-.264.862-.622 1.783-1.075 2.549zm13.264 2.349c-.556.891-1.14 1.76-1.777 2.57l-.256.258c-.41.361-.76.715-1.272.516-.153-.052-.205-.207-.256-.361 0-.972.41-1.893.863-2.814l.102-.257c.746-1.282 1.58-2.689 2.596-3.977.65-.825 1.368-1.606 2.186-2.269.359-.258.76-.464 1.17-.31.103.104.205.259.205.413 0 .052-.051.155-.051.207a42.505 42.505 0 0 0-1.675 2.916c-.6 1.031-1.199 2.084-1.835 3.108z"/>
    </g>
    <defs>
        <clipPath id="a">
            <path fill="#fff" d="M0 0h87.563v28.841H0z"/>
        </clipPath>
    </defs>
</svg>
