<svg width="100" height="100" viewBox="0 0 100 100" fill="none" xmlns="http://www.w3.org/2000/svg">
<g clip-path="url(#clip0)">
<path fill-rule="evenodd" clip-rule="evenodd" d="M56.5276 48.5722C58.6727 46.4265 61.3546 42.4934 59.7456 39.2151C58.7324 37.1889 56.6464 30.8119 58.5539 28.6069C58.0766 31.8852 59.2088 35.5799 60.7589 38.3211C62.7261 42.0759 59.5666 47.4398 56.5276 48.5722Z" stroke="#FF6600" stroke-width="0.000874107" stroke-miterlimit="2.61313" stroke-linecap="square" stroke-linejoin="round"/>
<path fill-rule="evenodd" clip-rule="evenodd" d="M56.5276 48.5722C58.6727 46.4265 61.3546 42.4934 59.7456 39.2151C58.7324 37.1889 56.6464 30.8119 58.5539 28.6069C58.0766 31.8852 59.2088 35.5799 60.7589 38.3211C62.7261 42.0759 59.5666 47.4398 56.5276 48.5722Z" fill="#FF6600"/>
<path fill-rule="evenodd" clip-rule="evenodd" d="M52.4742 65.9158H50.5671C50.329 65.9158 50.1504 66.0944 50.1504 66.3325V68.2396C50.1504 68.4777 50.329 68.6575 50.5671 68.6575H52.4742C52.7135 68.6575 52.8921 68.4777 52.8921 68.2396V66.3325C52.8921 66.0944 52.7135 65.9158 52.4742 65.9158Z" fill="#FF6600"/>
<path fill-rule="evenodd" clip-rule="evenodd" d="M47.1708 65.9158H49.0779C49.316 65.9158 49.4946 66.0944 49.4946 66.3325V68.2396C49.4946 68.4777 49.316 68.6575 49.0779 68.6575H47.1708C46.9327 68.6575 46.7529 68.4777 46.7529 68.2396V66.3325C46.7529 66.0944 46.9327 65.9158 47.1708 65.9158Z" fill="#FF6600"/>
<path fill-rule="evenodd" clip-rule="evenodd" d="M47.1708 71.9347H49.0779C49.316 71.9347 49.4946 71.7561 49.4946 71.518V69.6109C49.4946 69.3728 49.316 69.1931 49.0779 69.1931H47.1708C46.9327 69.1931 46.7529 69.3728 46.7529 69.6109V71.518C46.7529 71.7561 46.9327 71.9347 47.1708 71.9347Z" fill="#FF6600"/>
<path fill-rule="evenodd" clip-rule="evenodd" d="M52.4742 71.9347H50.5671C50.329 71.9347 50.1504 71.7561 50.1504 71.518V69.6109C50.1504 69.3728 50.329 69.1931 50.5671 69.1931H52.4742C52.7135 69.1931 52.8921 69.3728 52.8921 69.6109V71.518C52.8921 71.7561 52.7135 71.9347 52.4742 71.9347Z" fill="#FF6600"/>
<path fill-rule="evenodd" clip-rule="evenodd" d="M54.9186 58.8832C54.6805 58.7642 54.3817 58.5249 53.9055 58.1677C53.3686 57.7499 51.9388 56.4987 50.8662 55.8427C50.2698 55.4856 49.4948 55.4261 48.84 55.8427C48.3031 56.2606 47.9448 56.5582 47.4091 56.9761L33.4627 67.4058C32.2115 68.4189 31.2579 68.5975 32.3305 69.9677C32.6293 70.3856 32.9865 70.8023 33.2841 71.2201C34.1781 72.4118 34.2972 73.1273 35.8472 71.9939C39.065 69.6106 42.2841 67.1666 45.5615 64.7832C46.6341 64.0082 47.7067 63.1737 48.721 62.3392C49.7341 61.5058 49.9127 61.5058 50.9853 62.2201C51.9388 62.8761 52.8329 63.5916 53.7865 64.2475C56.6472 66.4523 59.9246 68.5975 62.6662 70.9213C63.0829 71.2796 63.5007 71.5177 63.9174 71.8749C65.2293 72.9487 65.5269 72.7689 66.1829 71.8749C66.5996 71.2797 67.196 70.6832 67.5531 70.0868C67.8507 69.6106 68.09 69.0749 67.8507 68.657C67.6722 68.3594 64.096 65.6773 62.6067 64.6046C62.19 64.3058 60.1031 62.757 59.9841 62.638C59.8055 62.3999 59.8055 62.0416 59.8055 61.1475V50.7177C59.8055 50.3606 59.8055 50.4201 59.5079 50.4201H55.8127C55.515 50.4201 55.4555 50.3606 55.4555 50.6582V58.4058C55.396 58.7642 55.4555 59.1213 54.9186 58.8832Z" fill="#FF6600"/>
<path fill-rule="evenodd" clip-rule="evenodd" d="M45.8089 0.118896C41.1006 0.596277 38.0018 2.02604 34.7827 4.11175C31.3863 6.31771 28.8827 9.71533 27.0351 13.2903C26.2601 14.8403 25.6053 14.5415 23.3994 15.376C11.778 19.5487 5.46129 32.2427 9.27439 44.2808C10.5863 48.4534 13.5661 52.9237 17.0827 55.307C19.6446 57.0356 21.5518 58.0487 24.7113 59.0023C25.8434 59.3594 26.9161 59.1808 27.0946 60.3725C27.3339 61.4463 27.4518 62.5784 27.6315 63.6511C27.8101 64.6046 27.7506 66.1534 28.6446 66.2725C29.2399 66.3332 32.2791 64.0677 32.4589 63.4725C32.6375 62.8761 32.4589 61.863 32.1006 59.2403C31.803 56.5582 31.803 55.4856 31.5053 55.0094C31.2077 54.5915 30.7303 54.5915 29.4791 54.3534C23.9958 53.2213 18.5125 50.182 16.3672 44.8772C13.2089 37.0701 15.3541 27.832 21.672 23.0046C24.1744 21.0975 26.2006 20.2034 29.3601 19.3689C31.3863 18.8332 30.7899 16.926 34.247 12.9332C37.703 8.93914 42.6506 6.37723 48.4303 6.49628C54.2125 6.37723 59.1589 8.93914 62.6149 12.9332C66.072 16.926 65.416 18.8332 67.5018 19.3689C70.6613 20.2034 72.6875 21.0975 75.191 23.0046C81.5672 27.832 83.7137 37.0106 80.4946 44.8772C78.3494 50.182 72.866 53.2213 67.3827 54.3534C66.1315 54.5915 65.5958 54.5915 65.3565 55.0094C65.0589 55.4856 65.0589 56.5582 64.7613 59.2403C64.4625 61.863 64.2244 62.8761 64.403 63.4725C64.5815 64.0677 67.6815 66.3332 68.2172 66.2725C69.1708 66.1534 69.1113 64.6046 69.2303 63.6511C69.4101 62.5784 69.5291 61.4463 69.7672 60.3725C70.0053 59.2403 71.0184 59.3594 72.1506 59.0023C75.3101 58.1082 77.2768 57.0356 79.7791 55.307C83.2958 52.9237 86.2756 48.3939 87.5875 44.2808C91.3422 32.2427 85.0244 19.5487 73.4625 15.376C71.2577 14.6022 70.6018 14.8403 69.8268 13.2903C67.9791 9.71533 65.4768 6.31771 62.0791 4.11175C58.9208 2.02604 55.7613 0.596277 51.053 0.118896C50.1589 -0.000152136 49.2649 -0.000152588 48.4303 -0.000152588C47.597 -0.000152588 46.703 -0.000152136 45.8089 0.118896Z" fill="#FF6600"/>
<path d="M58.0567 98.6649C57.7595 98.6649 57.5183 98.5515 57.3323 98.3254C56.7559 97.6235 57.176 97.2833 57.6012 96.7347L66.4162 85.3656C66.5328 85.2158 66.496 84.9953 66.362 84.8641C66.2203 84.7409 66.009 84.7629 65.8928 84.913L65.0921 85.9456H59.088C58.5492 85.9456 58.1357 85.7587 57.848 85.3848C57.5597 85.0109 57.416 84.5192 57.416 83.9091H67.8951C68.2109 83.9091 68.4568 84.0076 68.6338 84.2044C68.8102 84.4011 68.8983 84.6471 68.8983 84.9421C68.8983 85.2174 68.8146 85.4731 68.6476 85.7094L60.5975 96.0543H59.1555C58.9723 96.0543 58.8225 96.213 58.8225 96.4073C58.8225 96.6013 58.9723 96.7602 59.1555 96.7602H68.0046C68.2196 96.8534 68.4016 96.9965 68.55 97.1892C68.8379 97.5631 68.982 98.0547 68.982 98.6649H58.0567Z" stroke="black" stroke-width="0.00179533" stroke-miterlimit="2.61313"/>
<path fill-rule="evenodd" clip-rule="evenodd" d="M58.0565 98.6652C57.7589 98.6652 57.5184 98.5521 57.3327 98.3259C56.7553 97.6235 57.1755 97.2842 57.6017 96.7354L66.416 85.3652C66.5327 85.2152 66.4958 84.995 66.3624 84.864C66.2196 84.7414 66.0089 84.7628 65.8934 84.9128L65.0922 85.9461H59.0874C58.5493 85.9461 58.1362 85.7592 57.8482 85.3842C57.5601 85.0104 57.416 84.5188 57.416 83.9092H67.8946C68.2113 83.9092 68.4565 84.0081 68.6339 84.2045C68.8101 84.4009 68.8982 84.6473 68.8982 84.9426C68.8982 85.2176 68.8148 85.4735 68.647 85.7092L60.597 96.0545H59.1553C58.972 96.0545 58.822 96.2128 58.822 96.408C58.822 96.6021 58.972 96.7604 59.1553 96.7604H68.0041C68.2196 96.8533 68.4017 96.9973 68.5505 97.189C68.8374 97.5628 68.9815 98.0545 68.9815 98.6652H58.0565Z" fill="black"/>
<path d="M80.7417 86.0695C80.7417 84.6497 81.524 83.9295 83.1586 83.9295C83.1519 84.4621 83.1603 84.726 83.1636 84.9052C83.1772 85.5732 84.8081 83.8254 88.0091 83.9397C89.5837 83.9958 90.8303 84.4001 91.7448 85.3211C92.6593 86.2421 93.1165 87.4316 93.1165 88.8899V97.0054C93.1165 97.6389 92.9074 98.1038 92.4888 98.4015C92.0707 98.6988 91.4333 98.8476 90.5774 98.8476V89.149C90.5774 88.2276 90.3146 87.4987 89.7892 86.9614C89.2638 86.4244 88.4663 86.1557 87.3961 86.1557C86.6763 86.1557 85.9999 86.3043 85.3679 86.6018C84.7356 86.8993 84.2297 87.302 83.8501 87.8107C83.4707 88.3188 83.281 88.8706 83.281 89.4656V97.0054C83.281 97.6389 83.0719 98.1038 82.6533 98.4015C82.2352 98.6988 81.5978 98.8476 80.7417 98.8476V86.0695Z" stroke="black" stroke-width="0.00268061" stroke-miterlimit="2.61313"/>
<path d="M80.7424 86.0698C80.7424 84.6495 81.5246 83.9293 83.1591 83.9293C83.1531 84.4626 83.1615 84.7257 83.165 84.9055C83.1781 85.5733 84.8091 83.8257 88.0103 83.94C89.5841 83.996 90.8317 84.3995 91.746 85.321C92.6603 86.2424 93.1174 87.4317 93.1174 88.89V97.0055C93.1174 97.6388 92.9079 98.1043 92.49 98.4019C92.0722 98.6995 91.4341 98.8484 90.5781 98.8484V89.1495C90.5781 88.2281 90.315 87.4983 89.79 86.9614C89.265 86.4245 88.4674 86.1555 87.3972 86.1555C86.6769 86.1555 86.0008 86.3043 85.3686 86.6019C84.7365 86.8995 84.2305 87.3019 83.8508 87.8102C83.471 88.3186 83.2817 88.871 83.2817 89.465V97.0055C83.2817 97.6388 83.0722 98.1043 82.6543 98.4019C82.2365 98.6995 81.5984 98.8484 80.7424 98.8484V86.0698Z" fill="black"/>
<path d="M16.6742 96.1742C11.9886 96.1742 9.37268 92.3511 9.37268 88.4416C9.37268 84.5322 11.9886 80.7087 16.6742 80.7087C18.8589 80.7087 20.6124 81.5426 21.8485 82.8361C22.1072 83.0946 22.5095 83.1523 22.8258 82.9512L23.9181 82.2324C24.3207 81.9735 24.407 81.3988 24.0619 81.0537C22.251 79.1564 19.6638 78.0067 16.6742 78.0067C10.7239 78.0067 6.44043 82.5485 6.44043 88.4416C6.44043 94.3346 10.7239 98.8478 16.6742 98.8478C19.6638 98.8478 22.251 97.6978 24.0619 95.8293C24.407 95.4843 24.3207 94.9094 23.9181 94.6509L22.8258 93.9321C22.5095 93.7023 22.1072 93.7597 21.8485 94.0471C20.6124 95.3406 18.8589 96.1742 16.6742 96.1742Z" stroke="black" stroke-width="0.0034836" stroke-miterlimit="2.61313"/>
<path d="M16.6745 96.1741C11.9888 96.1741 9.37331 92.3515 9.37331 88.442C9.37331 84.5324 11.9888 80.7086 16.6745 80.7086C18.859 80.7086 20.6126 81.5432 21.8483 82.836C22.1078 83.0944 22.5102 83.1527 22.8257 82.9515L23.9185 82.2324C24.3209 81.9741 24.4066 81.3991 24.0614 81.0539C22.2507 79.1563 19.6638 78.0074 16.6745 78.0074C10.7245 78.0074 6.44116 82.5491 6.44116 88.442C6.44116 94.3348 10.7245 98.8479 16.6745 98.8479C19.6638 98.8479 22.2507 97.6979 24.0614 95.8301C24.4066 95.4848 24.3209 94.9098 23.9185 94.6515L22.8257 93.9324C22.5102 93.7027 22.1078 93.7598 21.8483 94.0479C20.6126 95.3408 18.859 96.1741 16.6745 96.1741Z" fill="black"/>
<path d="M73.4531 85.4884C73.4531 84.9734 73.6737 84.5733 74.1148 84.2881C74.5559 84.0029 75.1819 83.8601 75.9922 83.8601V97.2197C75.9922 97.7346 75.7718 98.1345 75.3304 98.4201C74.8893 98.7052 74.2634 98.848 73.4531 98.848V85.4884Z" stroke="black" stroke-width="0.00261162" stroke-miterlimit="2.61313"/>
<path d="M73.4504 85.4883C73.4504 84.974 73.6719 84.574 74.1123 84.2883C74.554 84.0038 75.179 83.8609 75.9897 83.8609V97.2192C75.9897 97.7347 75.7695 98.1347 75.3278 98.4204C74.8873 98.705 74.2611 98.8478 73.4504 98.8478V85.4883Z" fill="black"/>
<path d="M48.2325 98.8477C47.0514 98.8477 45.982 98.6251 45.0236 98.1796C44.0653 97.7345 43.3198 97.1293 42.7873 96.3647C42.2548 95.5997 41.9885 94.7432 41.9885 93.7943V89.0317C41.9885 88.0636 42.2548 87.1825 42.7873 86.3888C43.3198 85.5951 44.0602 84.9657 45.009 84.501C45.9577 84.0363 47.0322 83.8041 48.2325 83.8041C49.4328 83.8041 50.5124 84.0363 51.4708 84.501C52.4291 84.9657 53.1746 85.5951 53.7068 86.3888C54.2392 87.1825 54.5055 88.0636 54.5055 89.0317V93.7943C54.5055 94.7432 54.2345 95.5997 53.6923 96.3647C53.1503 97.1293 52.4048 97.7345 51.4563 98.1796C50.5073 98.6251 49.4328 98.8477 48.2325 98.8477ZM48.2325 96.6694C49.3944 96.6694 50.3186 96.3937 51.0061 95.8416C51.6935 95.2899 52.037 94.5687 52.037 93.6782V89.1188C52.037 88.5454 51.9061 88.0389 51.6449 87.5982L52.5783 86.4083C52.6626 86.3006 52.6438 86.1438 52.5361 86.0591C52.4285 85.9747 52.2715 85.9936 52.1872 86.1012L51.3404 87.1804C51.24 87.0657 51.1282 86.9571 51.0061 86.8535C50.3186 86.2727 49.3944 85.9821 48.2325 85.9821C47.0902 85.9821 46.1707 86.2727 45.4737 86.8535C44.7766 87.4342 44.428 88.1894 44.428 89.1188V93.6782C44.428 94.3123 44.6025 94.8607 44.9511 95.3229L44.0558 96.4639C43.9715 96.5716 43.9903 96.7285 44.098 96.8132C44.2056 96.8975 44.3629 96.8787 44.4472 96.771L45.2902 95.6965C45.3442 95.7461 45.4002 95.7947 45.4593 95.8416C46.1463 96.3937 47.071 96.6694 48.2325 96.6694Z" stroke="#FF6600" stroke-width="0.000615476" stroke-miterlimit="2.61313"/>
<path fill-rule="evenodd" clip-rule="evenodd" d="M48.2326 98.8478C47.0516 98.8478 45.9814 98.6251 45.023 98.1799C44.0647 97.7347 43.3195 97.1299 42.7873 96.3644C42.254 95.6001 41.9885 94.743 41.9885 93.7942V89.0323C41.9885 88.0644 42.254 87.1823 42.7873 86.3894C43.3195 85.5954 44.06 84.9656 45.0088 84.5013C45.9576 84.037 47.0314 83.8049 48.2326 83.8049C49.4326 83.8049 50.5123 84.037 51.4707 84.5013C52.429 84.9656 53.1742 85.5954 53.7064 86.3894C54.2385 87.1823 54.5052 88.0644 54.5052 89.0323V93.7942C54.5052 94.743 54.2338 95.6001 53.6921 96.3644C53.1504 97.1299 52.404 97.7347 51.4564 98.1799C50.5076 98.6251 49.4326 98.8478 48.2326 98.8478ZM48.2326 96.6692C49.3945 96.6692 50.3183 96.3942 51.0052 95.8418C51.6933 95.2906 52.0361 94.5692 52.0361 93.6787V89.1192C52.0361 88.5454 51.9052 88.0394 51.6445 87.5989L52.5778 86.4085C52.6623 86.3013 52.6433 86.1442 52.5361 86.0597C52.4278 85.9751 52.2707 85.9942 52.1873 86.1013L51.3397 87.1811C51.2397 87.0656 51.1278 86.9573 51.0052 86.8537C50.3183 86.2728 49.3945 85.9823 48.2326 85.9823C47.0897 85.9823 46.1707 86.2728 45.473 86.8537C44.7766 87.4347 44.4278 88.1894 44.4278 89.1192V93.6787C44.4278 94.312 44.6016 94.8609 44.9504 95.3228L44.0552 96.4644C43.9707 96.5716 43.9897 96.7287 44.098 96.8132C44.2052 96.8978 44.3623 96.8787 44.4469 96.7716L45.2897 95.6966C45.3445 95.7466 45.4004 95.7954 45.4588 95.8418C46.1457 96.3942 47.0707 96.6692 48.2326 96.6692Z" fill="#FF6600"/>
<path d="M33.1332 98.8477C31.9521 98.8477 30.8822 98.6251 29.924 98.1796C28.9655 97.7345 28.2201 97.1293 27.6879 96.3647C27.1554 95.5997 26.8892 94.7432 26.8892 93.7943V89.0317C26.8892 88.0636 27.1554 87.1825 27.6879 86.3888C28.2201 85.5951 28.9609 84.9657 29.9094 84.501C30.858 84.0363 31.9327 83.8041 33.1332 83.8041C34.3335 83.8041 35.4126 84.0363 36.3711 84.501C37.3295 84.9657 38.0748 85.5951 38.6073 86.3888C39.14 87.1825 39.4061 88.0636 39.4061 89.0317V93.7943C39.4061 94.7432 39.1348 95.5997 38.5929 96.3647C38.0506 97.1293 37.3055 97.7345 36.3565 98.1796C35.408 98.6251 34.3335 98.8477 33.1332 98.8477ZM33.1332 96.6694C34.2947 96.6694 35.2193 96.3937 35.9064 95.8416C36.5937 95.2899 36.9377 94.5687 36.9377 93.6782V89.1188C36.9377 88.5454 36.8067 88.0389 36.5452 87.5982L37.4789 86.4083C37.5632 86.3006 37.5444 86.1438 37.4367 86.0591C37.3291 85.9747 37.1718 85.9936 37.0875 86.1012L36.2408 87.1804C36.1403 87.0657 36.0289 86.9571 35.9064 86.8535C35.2193 86.2727 34.2947 85.9821 33.1332 85.9821C31.9908 85.9821 31.0712 86.2727 30.3741 86.8535C29.6773 87.4342 29.3287 88.1894 29.3287 89.1188V93.6782C29.3287 94.3123 29.5031 94.8607 29.8513 95.3229L28.9564 96.4639C28.8717 96.5716 28.8909 96.7285 28.9986 96.8132C29.1062 96.8975 29.2632 96.8787 29.3479 96.771L30.1908 95.6965C30.2445 95.7461 30.3009 95.7947 30.3596 95.8416C31.0469 96.3937 31.9713 96.6694 33.1332 96.6694Z" stroke="#FF6600" stroke-width="0.000615476" stroke-miterlimit="2.61313"/>
<path fill-rule="evenodd" clip-rule="evenodd" d="M33.1327 98.8478C31.9518 98.8478 30.8827 98.6251 29.9244 98.1799C28.9661 97.7347 28.2196 97.1299 27.6875 96.3644C27.1553 95.6001 26.8887 94.743 26.8887 93.7942V89.0323C26.8887 88.0644 27.1553 87.1823 27.6875 86.3894C28.2196 85.5954 28.9613 84.9656 29.9089 84.5013C30.8577 84.037 31.9327 83.8049 33.1327 83.8049C34.3339 83.8049 35.4125 84.037 36.3708 84.5013C37.3291 84.9656 38.0744 85.5954 38.6077 86.3894C39.1399 87.1823 39.4065 88.0644 39.4065 89.0323V93.7942C39.4065 94.743 39.1351 95.6001 38.5934 96.3644C38.0506 97.1299 37.3053 97.7347 36.3565 98.1799C35.4077 98.6251 34.3339 98.8478 33.1327 98.8478ZM33.1327 96.6692C34.2946 96.6692 35.2196 96.3942 35.9065 95.8418C36.5934 95.2906 36.9375 94.5692 36.9375 93.6787V89.1192C36.9375 88.5454 36.8065 88.0394 36.5446 87.5989L37.4791 86.4085C37.5637 86.3013 37.5446 86.1442 37.4363 86.0597C37.3291 85.9751 37.172 85.9942 37.0875 86.1013L36.2411 87.1811C36.1399 87.0656 36.0291 86.9573 35.9065 86.8537C35.2196 86.2728 34.2946 85.9823 33.1327 85.9823C31.9911 85.9823 31.0708 86.2728 30.3744 86.8537C29.6768 87.4347 29.3291 88.1894 29.3291 89.1192V93.6787C29.3291 94.312 29.503 94.8609 29.8518 95.3228L28.9565 96.4644C28.872 96.5716 28.8911 96.7287 28.9982 96.8132C29.1065 96.8978 29.2637 96.8787 29.3482 96.7716L30.1911 95.6966C30.2446 95.7466 30.3006 95.7954 30.3589 95.8418C31.047 96.3942 31.9708 96.6692 33.1327 96.6692Z" fill="#FF6600"/>
</g>
<defs>
<clipPath id="clip0">
<rect width="100" height="100" fill="white"/>
</clipPath>
</defs>
</svg>
