<svg xmlns="http://www.w3.org/2000/svg" width="24" height="24" fill="none" viewBox="0 0 24 24">
    <path fill="#111827" fill-rule="evenodd" d="M3.6 6c0-.663.537-1.2 1.2-1.2h14.4c.663 0 1.2.537 1.2 1.2 0 .663-.537 1.2-1.2 1.2H4.8c-.663 0-1.2-.537-1.2-1.2zM3.6 12c0-.663.537-1.2 1.2-1.2h14.4c.663 0 1.2.537 1.2 1.2 0 .662-.537 1.2-1.2 1.2H4.8c-.663 0-1.2-.537-1.2-1.2zM3.6 18c0-.663.537-1.2 1.2-1.2H12c.663 0 1.2.537 1.2 1.2 0 .663-.537 1.2-1.2 1.2H4.8c-.663 0-1.2-.537-1.2-1.2z" clip-rule="evenodd"/>
</svg>
