<svg width="37" height="33" fill="none" xmlns="http://www.w3.org/2000/svg">
    <circle cx="16" cy="17" r="16" fill="#E5E7EB"/>
    <path d="M15.622 6.191 32.144 9l-3.432 20.193-16.522-2.808 3.432-20.193z" fill="#FDBA74"/>
    <path d="M21.122 23.845A6.5 6.5 0 1 0 23.3 11.029a6.5 6.5 0 0 0-2.178 12.816z" fill="#FB923C"/>
    <path d="m34.93 23.166-.312 1.836-.918-.156-4.13-.702.312-1.836 3.671.624 1.377.234z" fill="#C0AB91"/>
    <path d="m35.417 14.75-1.776 4.892-.46-.078-2.753-.468.858-5.049 4.13.702z" fill="#957856"/>
    <path d="m36.647 13.07-.313 1.835-.917-.156-4.13-.702.311-1.836 3.672.624 1.377.234z" fill="#C0AB91"/>
    <path d="m34.898 9.467.372 3.368-3.672-.623.546-3.213 2.754.468zM33.182 19.563l.372 3.369-3.672-.624.546-3.212 2.754.467z" fill="#FED7AA"/>
    <path d="m33.7 24.846-1.775 4.892-3.213-.546.858-5.048 4.13.702zM13.048 21.336l-.857 5.049-3.213-.546-.06-5.205 4.13.702zM14.764 11.24l-.858 5.048-2.753-.468-.46-.078-.06-5.204 4.131.701z" fill="#957856"/>
    <path d="M13.906 16.288 13.36 19.5l-3.671-.624 1.464-3.056 2.753.468zM15.622 6.191l-.546 3.213-3.671-.624 1.464-3.057 2.753.468z" fill="#FED7AA"/>
    <path d="m13.36 19.5-.312 1.836-4.13-.702L8 20.478l.312-1.836 1.377.234 3.671.624zM15.076 9.404l-.312 1.836-4.13-.702-.918-.156.312-1.836 1.377.234 3.671.624z" fill="#C0AB91"/>
    <path d="m31.703 3.258-.936 5.507-2.754-.468.546-3.213a.934.934 0 0 0-.762-1.073l-6.425-1.092a.934.934 0 0 0-1.073.762l-.546 3.212-2.754-.468.936-5.507a.934.934 0 0 1 1.074-.762L30.94 2.184a.934.934 0 0 1 .762 1.074z" fill="#FDBA74"/>
    <path d="M21.413 16.065a1.423 1.423 0 0 1-1.163-1.64 1.423 1.423 0 0 1 1.64-1.162 1.423 1.423 0 0 1 1.163 1.64 1.423 1.423 0 0 1-1.64 1.162zm.318-1.868a.474.474 0 1 0-.159.934.474.474 0 0 0 .159-.934zM23.422 21.212a1.423 1.423 0 0 1-1.163-1.64 1.423 1.423 0 0 1 1.64-1.162 1.423 1.423 0 0 1 1.163 1.64 1.423 1.423 0 0 1-1.64 1.162zm.318-1.868a.475.475 0 0 0-.547.388.475.475 0 0 0 .388.546.475.475 0 0 0 .547-.388.475.475 0 0 0-.388-.546zM19.686 20.578a.474.474 0 0 1-.254-.803l5.783-5.747a.474.474 0 0 1 .668.672L20.1 20.446a.476.476 0 0 1-.414.131z" fill="#FAFAFA"/>
</svg>
