<svg xmlns="http://www.w3.org/2000/svg" width="20" height="20" fill="none" viewBox="0 0 20 20">
    <path fill="#F60" d="M9.524 1.463c.15-.46.802-.46.952 0l1.657 5.101c.067.206.259.346.476.346h5.363c.484 0 .686.62.294.904l-4.34 3.153c-.174.127-.248.353-.18.559l1.656 5.1c.15.461-.377.845-.769.56l-4.34-3.152c-.174-.128-.412-.128-.587 0l-4.339 3.152c-.392.285-.92-.099-.77-.56l1.658-5.1c.067-.206-.007-.432-.182-.56L1.734 7.815c-.392-.284-.19-.904.294-.904h5.363c.217 0 .409-.14.476-.346l1.657-5.1z"/>
</svg>
